<?xml version="1.0" encoding="UTF-8"?>
<svg viewBox="0 0 1000 500" xmlns="http://www.w3.org/2000/svg">
 <g transform="scale(16.667)">
  <path d="m0 0h60v30h-60z" fill="#006"/>
  <g font-size="12">
   <path d="m0 0v3.3541l53.292 26.646h6.7082v-3.3541l-53.292-26.646h-6.7082zm60 0v3.354l-53.292 26.646h-6.7082v-3.3542l53.292-26.646h6.7082z" fill="#fff"/>
   <path d="m25 0v30h10v-30h-10zm-25 10v10h60v-10h-60z" fill="#fff"/>
   <path d="m0 12v6h60v-6h-60zm27-12v30h6v-30h-6z" fill="#c00"/>
   <path d="m0 30 20-10h4.4721l-20 10h-4.4721zm0-30 20 10h-4.4721l-15.528-7.7639v-2.2361zm35.528 10 20-10h4.4721l-20 10h-4.4721zm24.472 20-20-10h4.4721l15.528 7.7639v2.2361z" fill="#c00"/>
  </g>
 </g>
</svg>
